<svg width="50" height="50" viewBox="0 0 50 50" fill="none" xmlns="http://www.w3.org/2000/svg">
<path opacity="0.2" d="M19.474 48.2391C18.7012 48.0559 18.0544 47.6273 17.1493 46.6988C15.6373 45.1477 14.4103 44.502 12.2777 44.1348C10.0654 43.7539 9.08226 42.9316 8.49121 40.9676C7.76164 38.5433 6.9991 37.3822 5.32363 36.1447C3.42301 34.7409 2.93536 33.5029 3.39926 31.2595C3.82894 29.1816 3.6644 27.7043 2.79175 25.8048C1.75057 23.5386 1.8791 22.3276 3.35789 20.4708C4.71359 18.7687 5.1391 17.6435 5.34215 15.2241C5.54703 12.7825 6.22633 11.7809 8.22687 10.9702C9.89652 10.2937 11.3249 9.11922 12.1168 7.77176C13.0325 6.21359 13.1662 6.03496 13.7336 5.61164C14.6491 4.92855 15.3894 4.73926 16.7993 4.82766C19.2482 4.98121 20.5609 4.68715 22.2055 3.61653C24.3498 2.2206 25.65 2.2206 27.7943 3.61653C29.4389 4.68715 30.7515 4.98121 33.2005 4.82766C35.5164 4.68242 36.4801 5.29039 37.8917 7.7873C38.5913 9.02469 40.0211 10.229 41.5863 10.8987C43.8152 11.8527 44.4629 12.7233 44.6273 14.9859C44.8055 17.4362 45.3078 18.8062 46.6387 20.4708C48.1207 22.3243 48.25 23.5364 47.2078 25.8048C46.3355 27.7043 46.1707 29.1816 46.6004 31.2595C47.0645 33.5029 46.5766 34.7409 44.6762 36.1447C43.0008 37.3822 42.2383 38.5433 41.5086 40.9676C40.9176 42.9316 39.9344 43.7539 37.7221 44.1348C35.5849 44.5027 34.3565 45.1504 32.8505 46.7039C31.181 48.4254 29.9841 48.7098 27.6501 47.9379C25.7411 47.307 24.2712 47.3043 22.3698 47.9285C21.0379 48.3656 20.328 48.4418 19.474 48.2391Z" fill="black"/>
<path d="M19.474 47.7816C18.7012 47.598 18.0544 47.1695 17.1493 46.241C15.6373 44.6902 14.4103 44.0441 12.2777 43.6773C10.0654 43.2965 9.08226 42.4738 8.49121 40.5102C7.76164 38.0855 6.9991 36.9245 5.32363 35.6869C3.42301 34.2831 2.93536 33.0451 3.39926 30.8017C3.82894 28.7238 3.6644 27.2465 2.79175 25.3471C1.75057 23.0808 1.8791 21.8698 3.35789 20.0131C4.71359 18.3109 5.1391 17.1857 5.34215 14.7663C5.54703 12.3248 6.22633 11.3231 8.22687 10.5125C9.89652 9.8359 11.3249 8.66145 12.1168 7.31398C13.0325 5.75582 13.1662 5.57719 13.7336 5.15391C14.6491 4.47078 15.3894 4.28148 16.7993 4.36988C19.2482 4.52344 20.5609 4.22941 22.2055 3.15877C24.3498 1.76283 25.65 1.76283 27.7943 3.15877C29.4389 4.22941 30.7515 4.52344 33.2005 4.36988C35.5164 4.22465 36.4801 4.83262 37.8917 7.32953C38.5913 8.56695 40.0211 9.77121 41.5863 10.441C43.8152 11.3949 44.4629 12.2655 44.6273 14.5281C44.8055 16.9784 45.3078 18.3485 46.6387 20.0131C48.1207 21.8665 48.25 23.0786 47.2078 25.3471C46.3355 27.2465 46.1707 28.7238 46.6004 30.8017C47.0645 33.0451 46.5766 34.2831 44.6762 35.6869C43.0008 36.9245 42.2383 38.0855 41.5086 40.5102C40.9176 42.4738 39.9344 43.2965 37.7221 43.6773C35.5849 44.0449 34.3565 44.693 32.8505 46.2461C31.181 47.968 29.9841 48.252 27.6501 47.4805C25.7411 46.8492 24.2712 46.8465 22.3698 47.4707C21.0379 47.9078 20.328 47.984 19.474 47.7816Z" fill="white"/>
<path d="M33.2049 23.0584C33.0608 22.7642 33.1844 22.4112 33.4785 22.2671C33.7726 22.123 34.1256 22.2465 34.2697 22.5407C34.4139 22.8348 34.2903 23.1878 33.9962 23.3319C33.7021 23.476 33.3491 23.3525 33.2049 23.0584ZM36.067 28.9413C35.9229 28.6472 36.0464 28.2942 36.3406 28.1501C36.6347 28.0059 36.9877 28.1295 37.1318 28.4236C37.276 28.7178 37.1524 29.0707 36.8583 29.2149C36.5641 29.359 36.2111 29.2355 36.067 28.9413ZM36.317 21.3082C34.4345 19.9639 31.9783 19.6169 29.7046 20.4964L35.9199 33.2771C38.0142 32.0328 39.2557 29.8826 39.3615 27.5735L41.7205 27.7412C41.8557 27.75 41.9737 27.65 41.9822 27.5118C41.9912 27.3764 41.8912 27.2588 41.753 27.25L39.3643 27.0794C39.3408 26.0734 39.0998 25.0468 38.6202 24.0585C38.1407 23.0731 37.4819 22.2495 36.7053 21.6082L38.0466 19.6227C38.1231 19.511 38.0937 19.358 37.9819 19.2815C37.8701 19.205 37.7172 19.2344 37.6407 19.3462L36.317 21.3053" fill="#3DDC84"/>
<path d="M30.5871 26.1204C28.834 26.9676 26.9485 27.397 24.9836 27.397C20.5567 27.397 16.5357 25.1498 14.1913 21.5729C14.006 21.2905 13.6236 21.2229 13.3501 21.4229L11.0939 23.0848C10.838 23.2731 10.7792 23.6319 10.9586 23.8967C14.0384 28.4942 19.2536 31.3739 24.9836 31.3739C27.5515 31.3739 30.0194 30.8121 32.3167 29.7032L30.5871 26.1204Z" fill="#4285F4"/>
<path d="M24.9629 11.9808H26.1836V9.28343C26.1836 8.60984 25.6365 8.06273 24.9629 8.06273C24.2893 8.06273 23.7422 8.60984 23.7422 9.28343V11.9808H24.9629Z" fill="#4285F4"/>
<path d="M21.7861 17.246L13.3941 34.5184C13.2117 34.8919 13.1146 35.2978 13.1058 35.7126L13.0558 37.9746C13.044 38.56 13.7206 38.8894 14.1736 38.5188L15.9208 37.0834C16.2414 36.8216 16.5003 36.4921 16.6827 36.1185L24.9541 19.0903L21.789 17.249L21.7861 17.246Z" fill="#4285F4"/>
<path d="M36.8229 35.7097C36.814 35.2949 36.714 34.889 36.5346 34.5154L28.1426 17.2431L24.9775 19.0904L33.249 36.1127C33.4313 36.4862 33.6902 36.8127 34.0108 37.0775L35.758 38.5129C36.211 38.8835 36.8905 38.5541 36.8758 37.9687L36.8258 35.7067L36.8229 35.7097Z" fill="#4285F4"/>
<path d="M24.9629 11.7661C22.9421 11.7661 21.3008 13.4103 21.3008 15.4282C21.3008 17.4461 22.945 19.0903 24.9629 19.0903C26.9807 19.0903 28.625 17.4461 28.625 15.4282C28.625 13.4103 26.9807 11.7661 24.9629 11.7661ZM24.9629 17.4431C23.854 17.4431 22.948 16.5401 22.948 15.4282C22.948 14.3163 23.851 13.4133 24.9629 13.4133C26.0748 13.4133 26.9778 14.3163 26.9778 15.4282C26.9778 16.5401 26.0748 17.4431 24.9629 17.4431Z" fill="#073042"/>
</svg>
