<svg width="33" height="50" viewBox="0 0 33 50" fill="none" xmlns="http://www.w3.org/2000/svg">
<g clip-path="url(#clip0_2003_131)">
<path d="M8.25177 50C12.8049 50 16.5001 46.2667 16.5001 41.6667V33.3333H8.25177C3.69868 33.3333 0.00341797 37.0667 0.00341797 41.6667C0.00341797 46.2667 3.69868 50 8.25177 50Z" fill="#0ACF83"/>
<path d="M0.00341797 25C0.00341797 20.4 3.69868 16.6667 8.25177 16.6667H16.5001V33.3333H8.25177C3.69868 33.3333 0.00341797 29.6 0.00341797 25Z" fill="#A259FF"/>
<path d="M0.00341797 8.33333C0.00341797 3.73333 3.69868 0 8.25177 0H16.5001V16.6667H8.25177C3.69868 16.6667 0.00341797 12.9333 0.00341797 8.33333Z" fill="#F24E1E"/>
<path d="M16.5 0H24.7484C29.3014 0 32.9967 3.73333 32.9967 8.33333C32.9967 12.9333 29.3014 16.6667 24.7484 16.6667H16.5V0Z" fill="#FF7262"/>
<path d="M32.9967 25C32.9967 29.6 29.3014 33.3333 24.7484 33.3333C20.1953 33.3333 16.5 29.6 16.5 25C16.5 20.4 20.1953 16.6667 24.7484 16.6667C29.3014 16.6667 32.9967 20.4 32.9967 25Z" fill="#1ABCFE"/>
</g>
<defs>
<clipPath id="clip0_2003_131">
<rect width="33" height="50" fill="white"/>
</clipPath>
</defs>
</svg>
