<svg width="50" height="50" viewBox="0 0 50 50" fill="none" xmlns="http://www.w3.org/2000/svg">
<g clip-path="url(#clip0_2003_188)">
<path d="M25.012 0.378784C14.7313 0.378784 11.7246 0.38939 11.1401 0.437875C9.03033 0.613254 7.71749 0.945451 6.28723 1.65757C5.18499 2.20492 4.3157 2.83939 3.45777 3.72878C1.89532 5.35075 0.948376 7.34621 0.605583 9.71818C0.438921 10.8697 0.390438 11.1045 0.38059 16.9864C0.376802 18.947 0.38059 21.5273 0.38059 24.9883C0.38059 35.261 0.391953 38.2648 0.441194 38.8481C0.611643 40.9011 0.933603 42.1928 1.6154 43.6057C2.91839 46.3102 5.40695 48.3405 8.33868 49.0981C9.3538 49.3595 10.475 49.5034 11.9143 49.5716C12.5242 49.5981 18.7399 49.617 24.9594 49.617C31.1789 49.617 37.3984 49.6095 37.9931 49.5792C39.6597 49.5008 40.6275 49.3708 41.6975 49.0943C44.6482 48.3329 47.0913 46.333 48.4208 43.5905C49.0893 42.2117 49.4283 40.8708 49.5818 38.925C49.6151 38.5008 49.6291 31.7367 49.6291 24.9818C49.6291 18.2258 49.6139 11.4742 49.5806 11.05C49.4253 9.07272 49.0863 7.74318 48.3962 6.33788C47.8299 5.1875 47.2011 4.32841 46.2883 3.45C44.6592 1.89394 42.6668 0.946966 40.2926 0.604542C39.1423 0.438254 38.9131 0.389011 33.0269 0.378784H25.012Z" fill="url(#paint0_radial_2003_188)"/>
<path d="M25.012 0.378784C14.7313 0.378784 11.7246 0.38939 11.1401 0.437875C9.03033 0.613254 7.71749 0.945451 6.28723 1.65757C5.18499 2.20492 4.3157 2.83939 3.45777 3.72878C1.89532 5.35075 0.948376 7.34621 0.605583 9.71818C0.438921 10.8697 0.390438 11.1045 0.38059 16.9864C0.376802 18.947 0.38059 21.5273 0.38059 24.9883C0.38059 35.261 0.391953 38.2648 0.441194 38.8481C0.611643 40.9011 0.933603 42.1928 1.6154 43.6057C2.91839 46.3102 5.40695 48.3405 8.33868 49.0981C9.3538 49.3595 10.475 49.5034 11.9143 49.5716C12.5242 49.5981 18.7399 49.617 24.9594 49.617C31.1789 49.617 37.3984 49.6095 37.9931 49.5792C39.6597 49.5008 40.6275 49.3708 41.6975 49.0943C44.6482 48.3329 47.0913 46.333 48.4208 43.5905C49.0893 42.2117 49.4283 40.8708 49.5818 38.925C49.6151 38.5008 49.6291 31.7367 49.6291 24.9818C49.6291 18.2258 49.6139 11.4742 49.5806 11.05C49.4253 9.07272 49.0863 7.74318 48.3962 6.33788C47.8299 5.1875 47.2011 4.32841 46.2883 3.45C44.6592 1.89394 42.6668 0.946966 40.2926 0.604542C39.1423 0.438254 38.9131 0.389011 33.0269 0.378784H25.012Z" fill="url(#paint1_radial_2003_188)"/>
<path d="M25.0007 6.81818C20.0629 6.81818 19.4432 6.83978 17.5039 6.92803C15.5684 7.01667 14.2472 7.32311 13.0912 7.77273C11.8954 8.23712 10.881 8.85834 9.87043 9.86932C8.8591 10.8799 8.2379 11.8943 7.77201 13.0898C7.32126 14.2462 7.01446 15.5678 6.92734 17.5027C6.8406 19.442 6.81787 20.0621 6.81787 25C6.81787 29.9379 6.83984 30.5557 6.92772 32.4951C7.01673 34.4307 7.32316 35.7519 7.77239 36.908C8.23715 38.1038 8.85834 39.1182 9.86929 40.1288C10.8795 41.1402 11.8939 41.7629 13.0889 42.2273C14.2457 42.6769 15.5672 42.9833 17.5024 43.072C19.4417 43.1602 20.061 43.1818 24.9984 43.1818C29.9365 43.1818 30.5543 43.1602 32.4936 43.072C34.4292 42.9833 35.7518 42.6769 36.9086 42.2273C38.104 41.7629 39.1169 41.1402 40.1271 40.1288C41.1384 39.1182 41.7596 38.1038 42.2255 36.9083C42.6725 35.7519 42.9793 34.4303 43.0702 32.4955C43.1573 30.5561 43.18 29.9379 43.18 25C43.18 20.0621 43.1573 19.4424 43.0702 17.503C42.9793 15.5674 42.6725 14.2462 42.2255 13.0902C41.7596 11.8943 41.1384 10.8799 40.1271 9.86932C39.1158 8.85796 38.1044 8.23674 36.9075 7.77273C35.7484 7.32311 34.4265 7.01667 32.491 6.92803C30.5516 6.83978 29.9342 6.81818 24.995 6.81818H25.0007ZM23.3696 10.0947C23.8537 10.0939 24.3939 10.0947 25.0007 10.0947C29.8551 10.0947 30.4304 10.1121 32.3474 10.1992C34.1201 10.2803 35.0822 10.5765 35.7231 10.8254C36.5715 11.1549 37.1764 11.5489 37.8124 12.1852C38.4487 12.8216 38.8427 13.4277 39.173 14.2761C39.4218 14.9163 39.7184 15.8784 39.7991 17.6511C39.8862 19.5678 39.9051 20.1436 39.9051 24.9958C39.9051 29.8481 39.8862 30.4239 39.7991 32.3405C39.718 34.1133 39.4218 35.0754 39.173 35.7155C38.8434 36.564 38.4487 37.1682 37.8124 37.8042C37.176 38.4405 36.5719 38.8345 35.7231 39.164C35.0829 39.414 34.1201 39.7095 32.3474 39.7905C30.4308 39.8777 29.8551 39.8966 25.0007 39.8966C20.1459 39.8966 19.5705 39.8777 17.6539 39.7905C15.8812 39.7087 14.9191 39.4125 14.2779 39.1636C13.4294 38.8341 12.8234 38.4402 12.187 37.8038C11.5507 37.1674 11.1568 36.5629 10.8265 35.714C10.5776 35.0739 10.281 34.1117 10.2003 32.339C10.1132 30.4224 10.0958 29.8466 10.0958 24.9913C10.0958 20.136 10.1132 19.5633 10.2003 17.6466C10.2814 15.8739 10.5776 14.9117 10.8265 14.2708C11.156 13.4224 11.5507 12.8163 12.187 12.1799C12.8234 11.5436 13.4294 11.1496 14.2779 10.8193C14.9188 10.5693 15.8812 10.2739 17.6539 10.1924C19.3311 10.1167 19.9811 10.0939 23.3696 10.0902V10.0947ZM34.7057 13.1136C33.5012 13.1136 32.5239 14.0898 32.5239 15.2947C32.5239 16.4992 33.5012 17.4765 34.7057 17.4765C35.9102 17.4765 36.8874 16.4992 36.8874 15.2947C36.8874 14.0902 35.9102 13.1129 34.7057 13.1129V13.1136ZM25.0007 15.6629C19.8444 15.6629 15.6638 19.8436 15.6638 25C15.6638 30.1564 19.8444 34.3352 25.0007 34.3352C30.1569 34.3352 34.336 30.1564 34.336 25C34.336 19.8436 30.1569 15.6629 25.0007 15.6629ZM25.0007 18.9394C28.3475 18.9394 31.0611 21.6527 31.0611 25C31.0611 28.347 28.3475 31.0606 25.0007 31.0606C21.6534 31.0606 18.9402 28.347 18.9402 25C18.9402 21.6527 21.6534 18.9394 25.0007 18.9394Z" fill="white"/>
</g>
<defs>
<radialGradient id="paint0_radial_2003_188" cx="0" cy="0" r="1" gradientUnits="userSpaceOnUse" gradientTransform="translate(13.4611 53.4094) rotate(-90) scale(48.7988 45.3977)">
<stop stop-color="#FFDD55"/>
<stop offset="0.1" stop-color="#FFDD55"/>
<stop offset="0.5" stop-color="#FF543E"/>
<stop offset="1" stop-color="#C837AB"/>
</radialGradient>
<radialGradient id="paint1_radial_2003_188" cx="0" cy="0" r="1" gradientTransform="matrix(4.28248 21.3889 -88.1856 17.6578 -7.87076 3.92583)" gradientUnits="userSpaceOnUse">
<stop stop-color="#3771C8"/>
<stop offset="0.128" stop-color="#3771C8"/>
<stop offset="1" stop-color="#6600FF" stop-opacity="0"/>
</radialGradient>
<clipPath id="clip0_2003_188">
<rect width="50" height="50" fill="white"/>
</clipPath>
</defs>
</svg>
