<svg width="70" height="50" viewBox="0 0 70 50" fill="none" xmlns="http://www.w3.org/2000/svg">
<g clip-path="url(#clip0_2003_144)">
<path d="M17.5492 44.1899H15.1126C15.0265 40.0772 14.7892 36.2107 14.4012 32.5877H14.3795L10.6699 44.1899H8.81478L5.12722 32.5877H5.10603C4.83248 36.0662 4.66016 39.9336 4.58859 44.1899H2.36768C2.51081 39.0141 2.87052 34.1617 3.44541 29.6323H6.46533L9.98009 40.3291H10.0017L13.5382 29.6323H16.4277C17.0605 34.9376 17.4343 39.7905 17.5492 44.1899ZM28.1161 33.4493C27.124 38.8328 25.8151 42.7445 24.1907 45.1862C22.9251 47.0658 21.5385 48.0065 20.0286 48.0065C19.626 48.0065 19.1293 47.885 18.5408 47.644V46.3459C18.8284 46.3873 19.166 46.4109 19.554 46.4109C20.2593 46.4109 20.8262 46.2169 21.2584 45.828C21.7754 45.3543 22.0339 44.8218 22.0339 44.2328C22.0339 43.8288 21.8323 43.003 21.4302 41.7524L18.7564 33.4488H21.1501L23.0692 39.6591C23.5005 41.0693 23.6804 42.0538 23.6083 42.6145C24.6578 39.8117 25.3909 36.7555 25.8085 33.4484H28.1161V33.4493Z" fill="#5D87A1"/>
<path d="M60.5496 44.1899H53.6284V29.6323H55.9566V42.398H60.5496V44.1899ZM51.8166 44.5417L49.1404 43.221C49.3777 43.026 49.6046 42.8151 49.809 42.5707C50.9465 41.2345 51.5139 39.2584 51.5139 36.6411C51.5139 31.825 49.6239 29.4157 45.8427 29.4157C43.9886 29.4157 42.5422 30.0268 41.5077 31.2496C40.3711 32.5868 39.8038 34.5558 39.8038 37.159C39.8038 39.718 40.3066 41.5952 41.3128 42.7859C42.2333 43.8646 43.6208 44.4046 45.4764 44.4046C46.1685 44.4046 46.8037 44.3199 47.3823 44.149L50.8665 46.1773L51.8166 44.5417ZM43.1472 41.2769C42.5577 40.3286 42.2629 38.806 42.2629 36.7065C42.2629 33.0411 43.3765 31.2063 45.6059 31.2063C46.7712 31.2063 47.6253 31.6451 48.1714 32.5208C48.76 33.4705 49.0561 34.9795 49.0561 37.0498C49.0561 40.7453 47.9417 42.5933 45.7137 42.5933C44.5479 42.5938 43.6938 42.1564 43.1472 41.2769ZM38.7892 40.1549C38.7892 41.3894 38.3362 42.4022 37.4313 43.1955C36.5254 43.9856 35.3106 44.3816 33.7884 44.3816C32.3646 44.3816 30.9842 43.9267 29.6479 43.0218L30.2737 41.7717C31.4235 42.3476 32.4645 42.6338 33.3991 42.6338C34.2762 42.6338 34.9618 42.4394 35.459 42.0538C35.9557 41.6667 36.2518 41.1239 36.2518 40.4374C36.2518 39.5725 35.6487 38.8333 34.5422 38.2141C33.522 37.6538 31.4814 36.4824 31.4814 36.4824C30.3754 35.6764 29.8217 34.811 29.8217 33.3853C29.8217 32.2054 30.2346 31.2529 31.0609 30.5283C31.8882 29.8008 32.9555 29.4383 34.264 29.4383C35.6153 29.4383 36.8437 29.8004 37.9501 30.517L37.3889 31.7675C36.4425 31.3654 35.5084 31.1644 34.587 31.1644C33.8407 31.1644 33.2644 31.3438 32.8637 31.7039C32.4598 32.0627 32.2107 32.5218 32.2107 33.0849C32.2107 33.9456 32.8265 34.6942 33.9631 35.3256C34.9971 35.8868 37.0885 37.0785 37.0885 37.0785C38.2227 37.8831 38.7892 38.7405 38.7892 40.1549Z" fill="#F8981D"/>
<path d="M63.4723 24.7563C62.0645 24.7206 60.9745 24.8623 60.0597 25.2493C59.7955 25.3548 59.3756 25.3548 59.3388 25.6886C59.4815 25.8298 59.498 26.0577 59.6218 26.2526C59.8327 26.6044 60.2005 27.0775 60.5362 27.3243C60.9048 27.6068 61.2749 27.8864 61.6629 28.1327C62.347 28.556 63.1224 28.8022 63.7891 29.2241C64.1776 29.4694 64.5637 29.7867 64.9526 30.0509C65.1437 30.1916 65.2661 30.42 65.5143 30.508V30.4544C65.39 30.2962 65.3546 30.0673 65.2327 29.8912L64.7044 29.3818C64.1941 28.6963 63.5598 28.0978 62.8757 27.6063C62.3126 27.2183 61.0809 26.691 60.8526 26.0422L60.8168 26.0064C61.2038 25.9701 61.6629 25.8298 62.0306 25.722C62.629 25.5643 63.1747 25.6001 63.7887 25.4423C64.0712 25.3717 64.3513 25.2832 64.6348 25.1961V25.0374C64.3165 24.7206 64.0895 24.2996 63.7548 24.0002C62.8592 23.2266 61.8724 22.47 60.8526 21.8367C60.3064 21.4841 59.6039 21.2571 59.0224 20.9572C58.8129 20.8513 58.4598 20.799 58.3364 20.6229C58.021 20.2359 57.8435 19.7264 57.6146 19.2683C57.1061 18.3017 56.6122 17.2292 56.1734 16.207C55.8561 15.5214 55.663 14.8369 55.276 14.2026C53.4633 11.2129 51.4948 9.40204 48.4692 7.62465C47.819 7.25458 47.0454 7.09685 46.2191 6.90287L44.8994 6.83319C44.6178 6.70983 44.3358 6.37507 44.09 6.21687C43.0862 5.58407 40.5018 4.21253 39.7635 6.02335C39.288 7.16795 40.4669 8.29324 40.8719 8.87377C41.1708 9.2768 41.5583 9.73539 41.7674 10.193C41.8912 10.492 41.9261 10.8094 42.0499 11.1253C42.3314 11.8993 42.5946 12.7605 42.9647 13.4827C43.1578 13.8509 43.3682 14.238 43.6149 14.5713C43.7562 14.7662 44.002 14.8524 44.0556 15.1702C43.8103 15.5205 43.791 16.0492 43.6502 16.489C43.0174 18.4764 43.2646 20.9384 44.1616 22.3989C44.4422 22.8386 45.1117 23.8067 46.0072 23.4357C46.8001 23.1193 46.6245 22.1169 46.8524 21.2378C46.9046 21.0255 46.8703 20.8861 46.9757 20.7467V20.7811C47.221 21.2731 47.4687 21.7473 47.6961 22.2407C48.2418 23.1018 49.1919 23.9992 49.9834 24.5958C50.4048 24.9141 50.7386 25.4584 51.2664 25.6528V25.6001H51.2316C51.1247 25.4423 50.9684 25.3717 50.8281 25.2493C50.5107 24.9324 50.1595 24.5454 49.9132 24.1942C49.1759 23.2087 48.5234 22.1178 47.9442 20.992C47.6608 20.4459 47.4164 19.8489 47.1881 19.3036C47.0817 19.0932 47.0817 18.7758 46.9051 18.6699C46.6405 19.0565 46.2549 19.3912 46.0618 19.8649C45.7271 20.6224 45.6922 21.5542 45.5679 22.5232L45.4987 22.5571C44.9384 22.4163 44.7435 21.8367 44.5307 21.3447C44.0038 20.0951 43.9153 18.0894 44.3725 16.6477C44.4949 16.279 45.0246 15.1179 44.8132 14.7667C44.7073 14.4301 44.3551 14.2384 44.162 13.9734C43.9351 13.64 43.6865 13.2181 43.5283 12.8481C43.1064 11.8636 42.8941 10.7726 42.4397 9.7886C42.2274 9.33001 41.8587 8.85541 41.5602 8.43307C41.225 7.95847 40.8563 7.62418 40.5912 7.06154C40.5037 6.86803 40.3808 6.55163 40.5216 6.34117C40.5559 6.19992 40.6275 6.14718 40.7678 6.11187C40.9957 5.9193 41.6469 6.16413 41.8752 6.27007C42.5273 6.53374 43.0725 6.77998 43.6168 7.14911C43.8631 7.32567 44.1272 7.65996 44.4431 7.74801H44.8132C45.3749 7.87043 46.0082 7.78191 46.5369 7.94105C47.4687 8.2405 48.3129 8.67979 49.07 9.15392C51.3738 10.6149 53.2736 12.6908 54.5561 15.1702C54.7666 15.5742 54.856 15.9443 55.0481 16.3656C55.4187 17.2282 55.8768 18.1077 56.2445 18.9519C56.6141 19.7782 56.9663 20.622 57.4941 21.3084C57.7573 21.6776 58.8148 21.8711 59.2889 22.0646C59.6397 22.2223 60.1859 22.3626 60.5023 22.5561C61.1007 22.9248 61.6968 23.3481 62.2594 23.7535C62.5396 23.9644 63.42 24.4042 63.4723 24.7563ZM45.5307 9.47126C45.2879 9.46873 45.0458 9.4985 44.8108 9.55977V9.59508H44.8447C44.9865 9.87617 45.2327 10.0711 45.4083 10.3164C45.55 10.5984 45.6729 10.8781 45.8118 11.1597L45.8457 11.1248C46.0939 10.9492 46.2172 10.6676 46.2172 10.2453C46.1103 10.121 46.0939 9.99953 46.0049 9.87617C45.9013 9.70008 45.6729 9.61251 45.5307 9.47126Z" fill="#5D87A1"/>
<path d="M65.1476 44.1876H65.512V42.4041H64.9654L64.5195 43.6212L64.035 42.4041H63.5086V44.1876H63.8528V42.8306H63.8721L64.3797 44.1876H64.6419L65.1476 42.8306V44.1876ZM62.2119 44.1876H62.5976V42.7063H63.1023V42.4036H61.686V42.7063H62.211L62.2119 44.1876Z" fill="#F8981D"/>
</g>
<defs>
<clipPath id="clip0_2003_144">
<rect width="70" height="50" fill="white"/>
</clipPath>
</defs>
</svg>
