<svg width="50" height="50" viewBox="0 0 50 50" fill="none" xmlns="http://www.w3.org/2000/svg">
<g clip-path="url(#clip0_2003_208)">
<path d="M25 29.4079C27.4612 29.4079 29.4565 27.4344 29.4565 25C29.4565 22.5656 27.4612 20.5921 25 20.5921C22.5387 20.5921 20.5435 22.5656 20.5435 25C20.5435 27.4344 22.5387 29.4079 25 29.4079Z" fill="#61DAFB"/>
<path d="M25 34.0307C38.2068 34.0307 48.913 29.9875 48.913 25C48.913 20.0125 38.2068 15.9693 25 15.9693C11.7931 15.9693 1.08691 20.0125 1.08691 25C1.08691 29.9875 11.7931 34.0307 25 34.0307Z" stroke="#61DAFB"/>
<path d="M17.0928 29.5154C23.6962 40.8279 32.5895 47.9769 36.9565 45.4831C41.3236 42.9894 39.5106 31.7972 32.9072 20.4846C26.3038 9.17212 17.4105 2.0231 13.0435 4.51686C8.67648 7.01063 10.4894 18.2028 17.0928 29.5154Z" stroke="#61DAFB"/>
<path d="M17.0929 20.4846C10.4895 31.7972 8.67652 42.9894 13.0435 45.4831C17.4106 47.9769 26.3038 40.8279 32.9072 29.5154C39.5107 18.2028 41.3236 7.01063 36.9566 4.51687C32.5896 2.0231 23.6963 9.17212 17.0929 20.4846Z" stroke="#61DAFB"/>
</g>
<defs>
<clipPath id="clip0_2003_208">
<rect width="50" height="44" fill="white" transform="translate(0 3)"/>
</clipPath>
</defs>
</svg>
