<svg width="50" height="50" viewBox="0 0 50 50" fill="none" xmlns="http://www.w3.org/2000/svg">
<g clip-path="url(#clip0_2003_215)">
<mask id="mask0_2003_215" style="mask-type:luminance" maskUnits="userSpaceOnUse" x="0" y="10" width="50" height="31">
<path d="M0 10H50V40.4364H0V10Z" fill="white"/>
</mask>
<g mask="url(#mask0_2003_215)">
<path fill-rule="evenodd" clip-rule="evenodd" d="M25 10C18.3333 10 14.1667 13.3818 12.5 20.1455C15 16.7636 17.9167 15.4955 21.25 16.3409C23.1519 16.8228 24.5111 18.2235 26.0157 19.7725C28.4667 22.2967 31.3037 25.2182 37.5 25.2182C44.1667 25.2182 48.3333 21.8364 50 15.0727C47.5 18.4545 44.5833 19.7227 41.25 18.8773C39.3481 18.3954 37.9889 16.9947 36.4843 15.4457C34.0333 12.9215 31.1963 10 25 10ZM12.5 25.2182C5.83333 25.2182 1.66667 28.6 0 35.3636C2.5 31.9818 5.41667 30.7136 8.75 31.5591C10.6519 32.0419 12.0111 33.4416 13.5157 34.9907C15.9667 37.5148 18.8037 40.4364 25 40.4364C31.6667 40.4364 35.8333 37.0545 37.5 30.2909C35 33.6727 32.0833 34.9409 28.75 34.0955C26.8481 33.6135 25.4889 32.2129 23.9843 30.6638C21.5333 28.1397 18.6963 25.2182 12.5 25.2182Z" fill="#38BDF8"/>
</g>
</g>
<defs>
<clipPath id="clip0_2003_215">
<rect width="50" height="31" fill="white" transform="translate(0 10)"/>
</clipPath>
</defs>
</svg>
